<svg xmlns="http://www.w3.org/2000/svg" xmlns:xlink="http://www.w3.org/1999/xlink" width="320" zoomAndPan="magnify" viewBox="0 0 240 98.999996" height="132" preserveAspectRatio="xMidYMid meet" version="1.0"><defs><clipPath id="a19c79a2e8"><path d="M 0 25.925781 L 240 25.925781 L 240 77.675781 L 0 77.675781 Z M 0 25.925781 " clip-rule="nonzero"/></clipPath></defs><g clip-path="url(#a19c79a2e8)"><path fill="#000000" d="M 16.46875 34.808594 C 18.242188 34.808594 19.882812 35.015625 21.386719 35.417969 C 22.890625 35.816406 24.296875 36.378906 25.613281 37.097656 L 25.800781 42.832031 L 25.328125 42.832031 L 22.988281 39.101562 C 22.671875 38.511719 22.324219 37.976562 21.945312 37.496094 C 21.574219 37.011719 21.105469 36.644531 20.546875 36.394531 C 20.074219 36.179688 19.609375 36.015625 19.15625 35.910156 C 18.703125 35.800781 18.136719 35.742188 17.449219 35.742188 C 15.636719 35.742188 13.984375 36.226562 12.5 37.191406 C 11.015625 38.15625 9.828125 39.75 8.9375 41.972656 C 8.046875 44.195312 7.601562 47.238281 7.601562 51.097656 C 7.601562 54.929688 8.023438 57.960938 8.863281 60.191406 C 9.710938 62.414062 10.867188 64.003906 12.320312 64.953125 C 13.773438 65.894531 15.40625 66.367188 17.21875 66.367188 C 18.210938 66.367188 19.011719 66.300781 19.609375 66.15625 C 20.203125 66.019531 20.796875 65.808594 21.386719 65.527344 C 21.984375 65.277344 22.4375 64.910156 22.746094 64.425781 C 23.0625 63.945312 23.339844 63.425781 23.589844 62.863281 L 25.011719 59.714844 C 24.566406 58.34375 24.34375 56.828125 24.34375 55.167969 C 24.34375 52.734375 24.851562 50.632812 25.859375 48.863281 C 26.878906 47.089844 28.269531 45.71875 30.03125 44.753906 C 31.800781 43.789062 33.796875 43.304688 36.015625 43.304688 C 38.230469 43.304688 40.21875 43.78125 41.964844 44.730469 C 42.660156 45.105469 43.296875 45.546875 43.878906 46.050781 L 45.445312 46.050781 C 45.464844 46.050781 45.484375 46.050781 45.503906 46.054688 L 45.582031 46.054688 L 53.597656 43.347656 L 54.074219 43.820312 L 54.441406 46.621094 C 55.535156 45.65625 56.773438 44.863281 58.148438 44.238281 C 59.523438 43.617188 60.882812 43.304688 62.226562 43.304688 C 63.945312 43.304688 65.332031 43.695312 66.386719 44.46875 L 67.914062 44.46875 C 67.914062 44.46875 67.914062 44.46875 67.917969 44.46875 L 69.035156 44.28125 C 70.003906 44.066406 70.835938 43.753906 71.539062 43.347656 C 72.242188 42.945312 72.9375 42.398438 73.625 41.710938 L 77.46875 37.464844 L 77.933594 37.464844 L 77.796875 44.007812 L 83.050781 44.007812 L 83.050781 44.941406 L 77.753906 44.941406 L 77.753906 61.742188 C 77.753906 62.832031 77.996094 63.660156 78.480469 64.21875 C 78.964844 64.777344 79.578125 65.054688 80.324219 65.054688 C 80.984375 65.054688 81.5625 64.894531 82.0625 64.574219 C 82.558594 64.246094 83.0625 63.804688 83.566406 63.242188 L 83.75 63.421875 L 83.75 48.863281 C 83.75 48.207031 83.628906 47.71875 83.394531 47.394531 C 83.160156 47.066406 82.730469 46.839844 82.109375 46.714844 L 81.453125 46.566406 L 81.453125 46.105469 L 90.039062 43.347656 L 90.503906 43.820312 L 90.457031 46.019531 L 98.378906 43.347656 L 98.851562 43.820312 L 99.21875 46.621094 C 100.316406 45.65625 101.550781 44.863281 102.925781 44.238281 C 104.300781 43.617188 105.660156 43.304688 107.003906 43.304688 C 109.066406 43.304688 110.652344 43.867188 111.765625 44.984375 C 111.839844 45.058594 111.914062 45.136719 111.984375 45.21875 L 113.296875 45.21875 L 113.296875 45.214844 L 121.679688 43.589844 L 122.152344 44.050781 L 121.921875 50.679688 L 121.921875 61.929688 C 121.921875 62.933594 122.207031 63.667969 122.785156 64.132812 C 123.359375 64.59375 124.085938 64.824219 124.964844 64.824219 C 125.84375 64.824219 126.625 64.703125 127.316406 64.457031 C 128.003906 64.207031 128.6875 63.835938 129.378906 63.335938 L 129.558594 48.109375 C 129.558594 47.394531 129.449219 46.890625 129.230469 46.597656 C 129.011719 46.300781 128.609375 46.089844 128.019531 45.96875 L 127.546875 45.820312 L 127.546875 45.359375 L 135.753906 43.589844 L 136.226562 44.050781 L 136.179688 46.011719 L 144.476562 43.347656 L 144.941406 43.820312 L 144.929688 44.339844 L 145.273438 44.28125 C 146.242188 44.066406 147.078125 43.753906 147.78125 43.347656 C 148.480469 42.945312 149.175781 42.398438 149.867188 41.710938 L 153.710938 37.464844 L 154.175781 37.464844 L 154.039062 44.007812 L 168.671875 44.007812 L 168.671875 44.425781 L 167.734375 44.792969 C 167.042969 45.011719 166.691406 45.359375 166.667969 45.84375 C 166.652344 46.324219 166.773438 46.929688 167.027344 47.648438 L 171.902344 60.253906 L 176.550781 47.5 C 176.792969 46.785156 176.886719 46.1875 176.824219 45.707031 C 176.757812 45.222656 176.371094 44.890625 175.652344 44.699219 L 174.675781 44.46875 L 174.675781 44.007812 L 181.183594 44.007812 L 181.183594 44.46875 L 180.152344 44.792969 C 179.433594 45.011719 178.933594 45.324219 178.65625 45.726562 C 178.375 46.132812 178.109375 46.699219 177.855469 47.417969 L 170.3125 67.910156 C 169.09375 71.171875 167.871094 73.613281 166.648438 75.230469 C 165.433594 76.847656 163.855469 77.664062 161.917969 77.664062 C 160.667969 77.664062 159.675781 77.351562 158.9375 76.730469 C 158.199219 76.105469 157.832031 75.3125 157.832031 74.347656 C 157.832031 73.480469 158.144531 72.78125 158.769531 72.25 C 159.394531 71.71875 160.101562 71.453125 160.886719 71.453125 C 161.667969 71.453125 162.320312 71.617188 162.847656 71.945312 C 163.378906 72.273438 163.847656 72.75 164.257812 73.371094 L 164.582031 73.75 C 165.269531 74.679688 165.957031 74.664062 166.648438 73.699219 C 166.925781 73.230469 167.25 72.613281 167.605469 71.851562 C 167.972656 71.089844 168.390625 70.070312 168.859375 68.800781 L 159.757812 47.132812 C 159.542969 46.539062 159.308594 46.0625 159.054688 45.707031 C 158.847656 45.417969 158.539062 45.160156 158.128906 44.941406 L 153.996094 44.941406 L 153.996094 61.742188 C 153.996094 62.832031 154.238281 63.660156 154.722656 64.21875 C 155.207031 64.777344 155.820312 65.054688 156.566406 65.054688 C 157.222656 65.054688 157.800781 64.894531 158.304688 64.574219 C 158.800781 64.246094 159.304688 63.804688 159.808594 63.242188 L 160.273438 63.703125 C 159.644531 64.769531 158.789062 65.609375 157.691406 66.230469 C 156.601562 66.851562 155.273438 67.164062 153.710938 67.164062 C 151.710938 67.164062 150.152344 66.667969 149.042969 65.675781 C 147.933594 64.675781 147.382812 63.085938 147.382812 60.902344 L 147.382812 44.941406 L 144.917969 44.941406 L 144.804688 50.445312 L 144.804688 63.523438 C 144.804688 64.148438 144.917969 64.644531 145.152344 65.015625 C 145.386719 65.386719 145.804688 65.664062 146.394531 65.851562 L 146.867188 65.988281 L 146.867188 66.460938 L 138.046875 66.460938 L 129.84375 66.933594 L 129.421875 64.175781 C 128.390625 65.015625 127.265625 65.726562 126.0625 66.304688 C 124.859375 66.875 123.449219 67.164062 121.828125 67.164062 C 120.605469 67.164062 119.484375 66.929688 118.46875 66.460938 C 117.457031 65.996094 116.660156 65.238281 116.078125 64.195312 C 115.5 63.15625 115.226562 61.777344 115.265625 60.0625 L 115.402344 48.066406 C 115.402344 47.351562 115.277344 46.839844 115.023438 46.523438 C 114.777344 46.210938 114.386719 45.996094 113.855469 45.875 L 113.300781 45.6875 L 112.339844 45.6875 C 113.066406 46.777344 113.429688 48.253906 113.429688 50.121094 L 113.429688 63.566406 C 113.429688 64.785156 114.023438 65.546875 115.21875 65.851562 L 115.640625 65.988281 L 115.640625 66.460938 L 104.570312 66.460938 L 104.570312 65.988281 L 105.179688 65.8125 C 106.277344 65.46875 106.824219 64.707031 106.824219 63.523438 L 106.824219 48.621094 C 106.824219 46.628906 105.824219 45.632812 103.824219 45.632812 C 102.445312 45.632812 100.941406 46.320312 99.316406 47.6875 L 99.316406 63.566406 C 99.316406 64.785156 99.863281 65.546875 100.957031 65.851562 L 101.378906 65.988281 L 101.378906 66.460938 L 81.453125 66.460938 L 81.453125 66.230469 C 80.359375 66.851562 79.035156 67.164062 77.46875 67.164062 C 75.46875 67.164062 73.914062 66.667969 72.804688 65.675781 C 71.691406 64.675781 71.140625 63.085938 71.140625 60.902344 L 71.140625 44.941406 L 67.90625 44.941406 L 67.90625 44.9375 L 66.941406 44.9375 C 66.957031 44.953125 66.96875 44.96875 66.984375 44.984375 C 68.09375 46.101562 68.648438 47.816406 68.648438 50.121094 L 68.648438 63.566406 C 68.648438 64.785156 69.246094 65.546875 70.441406 65.851562 L 70.863281 65.988281 L 70.863281 66.460938 L 59.792969 66.460938 L 59.792969 65.988281 L 60.402344 65.8125 C 61.5 65.46875 62.046875 64.707031 62.046875 63.523438 L 62.046875 48.621094 C 62.046875 46.628906 61.046875 45.632812 59.042969 45.632812 C 57.667969 45.632812 56.164062 46.320312 54.535156 47.6875 L 54.535156 63.566406 C 54.535156 64.785156 55.082031 65.546875 56.179688 65.851562 L 56.601562 65.988281 L 56.601562 66.460938 L 45.582031 66.460938 L 45.582031 65.988281 L 46.238281 65.8125 C 47.332031 65.496094 47.878906 64.738281 47.878906 63.523438 L 47.878906 48.90625 C 47.878906 48.222656 47.769531 47.71875 47.554688 47.394531 C 47.335938 47.066406 46.914062 46.839844 46.289062 46.714844 L 45.585938 46.523438 L 44.386719 46.527344 C 45.050781 47.191406 45.625 47.953125 46.117188 48.8125 C 47.132812 50.589844 47.644531 52.707031 47.644531 55.167969 C 47.644531 57.621094 47.164062 59.746094 46.210938 61.53125 C 45.261719 63.324219 43.917969 64.710938 42.1875 65.695312 C 40.453125 66.675781 38.394531 67.164062 36.015625 67.164062 C 33.640625 67.164062 31.574219 66.675781 29.820312 65.695312 C 28.238281 64.804688 26.976562 63.574219 26.046875 62.007812 L 25.980469 64.972656 C 24.667969 65.652344 23.195312 66.207031 21.566406 66.640625 C 19.945312 67.082031 18.164062 67.300781 16.226562 67.300781 C 13.199219 67.300781 10.457031 66.683594 8 65.453125 C 5.550781 64.226562 3.605469 62.398438 2.164062 59.96875 C 0.726562 57.542969 0.0078125 54.574219 0.0078125 51.054688 C 0.0078125 48.378906 0.441406 46.03125 1.3125 44.007812 C 2.191406 41.980469 3.386719 40.28125 4.90625 38.910156 C 6.421875 37.542969 8.171875 36.515625 10.160156 35.839844 C 12.144531 35.152344 14.25 34.808594 16.46875 34.808594 Z M 196.746094 35.707031 C 198.410156 35.707031 199.945312 35.894531 201.351562 36.273438 C 202.753906 36.652344 204.066406 37.175781 205.296875 37.847656 L 205.691406 38.058594 L 205.902344 44.449219 L 204.234375 44.449219 L 201.890625 40.71875 L 201.878906 40.691406 C 201.617188 40.203125 201.335938 39.761719 201.03125 39.367188 C 200.773438 39.039062 200.453125 38.792969 200.074219 38.621094 C 199.695312 38.445312 199.324219 38.3125 198.972656 38.230469 C 198.628906 38.148438 198.175781 38.105469 197.625 38.105469 C 196.160156 38.105469 194.832031 38.496094 193.632812 39.269531 C 192.445312 40.042969 191.484375 41.347656 190.746094 43.1875 C 189.988281 45.082031 189.609375 47.707031 189.609375 51.054688 C 189.609375 54.382812 189.96875 56.996094 190.6875 58.894531 C 191.382812 60.730469 192.3125 62.019531 193.46875 62.777344 C 194.636719 63.539062 195.953125 63.921875 197.417969 63.921875 C 198.25 63.921875 198.902344 63.863281 199.371094 63.753906 C 199.847656 63.640625 200.328125 63.472656 200.808594 63.246094 L 200.84375 63.230469 C 201.222656 63.070312 201.511719 62.84375 201.703125 62.546875 C 201.957031 62.148438 202.191406 61.71875 202.398438 61.253906 L 204.453125 56.703125 L 206.183594 56.703125 L 206.03125 63.929688 L 205.617188 64.144531 C 204.394531 64.785156 203.027344 65.304688 201.519531 65.710938 C 200 66.117188 198.339844 66.320312 196.539062 66.320312 C 193.703125 66.320312 191.132812 65.746094 188.828125 64.589844 C 186.496094 63.421875 184.648438 61.6875 183.285156 59.382812 C 181.925781 57.089844 181.246094 54.300781 181.246094 51.011719 C 181.246094 48.511719 181.660156 46.308594 182.484375 44.398438 C 183.3125 42.488281 184.445312 40.882812 185.882812 39.582031 C 187.316406 38.285156 188.976562 37.3125 190.847656 36.667969 C 192.707031 36.027344 194.671875 35.707031 196.746094 35.707031 Z M 36.015625 44.238281 C 34.925781 44.238281 34.046875 44.550781 33.371094 45.171875 C 32.695312 45.796875 32.210938 46.898438 31.917969 48.484375 C 31.621094 50.074219 31.476562 52.332031 31.476562 55.261719 C 31.476562 58.15625 31.621094 60.398438 31.917969 61.984375 C 32.210938 63.574219 32.695312 64.675781 33.371094 65.296875 C 34.046875 65.921875 34.925781 66.230469 36.015625 66.230469 C 37.109375 66.230469 37.984375 65.921875 38.636719 65.296875 C 39.296875 64.675781 39.773438 63.574219 40.070312 61.984375 C 40.371094 60.398438 40.523438 58.15625 40.523438 55.261719 C 40.523438 52.332031 40.371094 50.074219 40.070312 48.484375 C 39.773438 46.898438 39.296875 45.796875 38.636719 45.171875 C 37.984375 44.550781 37.109375 44.238281 36.015625 44.238281 Z M 235.601562 57.453125 C 236.828125 57.453125 237.871094 57.894531 238.722656 58.777344 C 239.566406 59.652344 239.992188 60.679688 239.992188 61.867188 C 239.992188 63.058594 239.566406 64.074219 238.710938 64.921875 C 237.859375 65.769531 236.820312 66.195312 235.601562 66.195312 C 234.375 66.195312 233.335938 65.769531 232.488281 64.921875 C 231.632812 64.074219 231.207031 63.058594 231.207031 61.867188 C 231.207031 60.679688 231.632812 59.652344 232.476562 58.777344 C 233.332031 57.894531 234.371094 57.453125 235.601562 57.453125 Z M 217.910156 43.300781 C 220.027344 43.300781 221.929688 43.757812 223.613281 44.667969 C 225.308594 45.589844 226.644531 46.90625 227.628906 48.621094 C 228.605469 50.328125 229.09375 52.347656 229.09375 54.683594 C 229.09375 57.011719 228.636719 59.035156 227.722656 60.75 C 226.800781 62.484375 225.496094 63.828125 223.8125 64.78125 C 222.140625 65.722656 220.171875 66.195312 217.910156 66.195312 C 215.648438 66.195312 213.675781 65.722656 211.992188 64.78125 C 210.292969 63.828125 208.980469 62.476562 208.054688 60.726562 C 207.144531 59 206.691406 56.984375 206.691406 54.683594 C 206.691406 52.378906 207.175781 50.371094 208.152344 48.664062 C 209.136719 46.949219 210.480469 45.625 212.191406 44.695312 C 213.886719 43.765625 215.792969 43.300781 217.910156 43.300781 Z M 90.363281 50.445312 L 90.363281 63.523438 C 90.363281 64.148438 90.480469 64.644531 90.710938 65.015625 C 90.875 65.269531 91.121094 65.480469 91.453125 65.648438 C 92.257812 65.269531 92.65625 64.5625 92.65625 63.523438 L 92.65625 48.90625 C 92.65625 48.222656 92.546875 47.71875 92.332031 47.394531 C 92.113281 47.066406 91.691406 46.839844 91.066406 46.714844 L 90.445312 46.546875 Z M 136.078125 50.679688 L 136.078125 63.335938 C 136.078125 64.023438 136.171875 64.554688 136.363281 64.929688 C 136.492188 65.1875 136.726562 65.414062 137.070312 65.609375 C 137.414062 65.441406 137.671875 65.230469 137.832031 64.972656 C 138.066406 64.59375 138.1875 64.097656 138.1875 63.472656 L 138.1875 48.863281 C 138.1875 48.207031 138.066406 47.71875 137.832031 47.394531 C 137.597656 47.066406 137.167969 46.839844 136.546875 46.714844 L 136.167969 46.628906 Z M 235.601562 59.015625 C 234.816406 59.015625 234.152344 59.300781 233.609375 59.859375 C 233.054688 60.433594 232.78125 61.101562 232.78125 61.867188 C 232.78125 62.625 233.054688 63.273438 233.597656 63.816406 C 234.144531 64.359375 234.808594 64.628906 235.601562 64.628906 C 236.390625 64.628906 237.054688 64.359375 237.601562 63.816406 C 238.144531 63.273438 238.417969 62.625 238.417969 61.867188 C 238.417969 61.101562 238.140625 60.433594 237.589844 59.859375 C 237.046875 59.300781 236.382812 59.015625 235.601562 59.015625 Z M 193.382812 37.597656 C 192.695312 37.738281 192.023438 37.917969 191.367188 38.148438 C 189.691406 38.722656 188.214844 39.589844 186.941406 40.738281 C 185.671875 41.886719 184.664062 43.3125 183.925781 45.019531 C 183.1875 46.730469 182.816406 48.726562 182.816406 51.011719 C 182.816406 54.015625 183.425781 56.539062 184.636719 58.589844 C 185.84375 60.625 187.476562 62.160156 189.53125 63.191406 C 190.679688 63.765625 191.898438 64.179688 193.195312 64.4375 C 192.996094 64.328125 192.800781 64.210938 192.605469 64.085938 C 191.164062 63.144531 190.03125 61.597656 189.21875 59.449219 C 188.433594 57.371094 188.035156 54.574219 188.035156 51.054688 C 188.035156 47.503906 188.453125 44.6875 189.289062 42.605469 C 190.144531 40.460938 191.308594 38.914062 192.773438 37.960938 C 192.972656 37.832031 193.175781 37.710938 193.382812 37.597656 Z M 220.859375 45.242188 C 221.539062 45.921875 222.023438 47.035156 222.3125 48.574219 C 222.585938 50.042969 222.722656 52.105469 222.722656 54.769531 C 222.722656 57.40625 222.585938 59.457031 222.3125 60.921875 C 222.015625 62.496094 221.519531 63.621094 220.816406 64.292969 C 221.621094 64.09375 222.359375 63.800781 223.035156 63.417969 C 224.457031 62.617188 225.550781 61.484375 226.335938 60.019531 C 227.125 58.53125 227.523438 56.753906 227.523438 54.683594 C 227.523438 52.628906 227.101562 50.863281 226.261719 49.398438 C 225.429688 47.9375 224.292969 46.824219 222.859375 46.042969 C 222.230469 45.703125 221.5625 45.4375 220.859375 45.242188 Z M 214.925781 45.261719 C 214.230469 45.457031 213.570312 45.722656 212.945312 46.066406 C 211.496094 46.855469 210.355469 47.980469 209.519531 49.4375 C 208.679688 50.90625 208.261719 52.652344 208.261719 54.683594 C 208.261719 56.726562 208.65625 58.496094 209.449219 60 C 210.230469 61.476562 211.332031 62.617188 212.761719 63.417969 C 213.441406 63.796875 214.179688 64.085938 214.976562 64.289062 C 214.265625 63.609375 213.765625 62.488281 213.472656 60.921875 C 213.195312 59.457031 213.058594 57.40625 213.058594 54.769531 C 213.058594 52.105469 213.195312 50.042969 213.472656 48.574219 C 213.757812 47.046875 214.242188 45.941406 214.925781 45.261719 Z M 217.910156 45.703125 C 217.140625 45.703125 216.53125 45.910156 216.078125 46.328125 C 215.605469 46.765625 215.25 47.613281 215.019531 48.863281 C 214.757812 50.234375 214.628906 52.203125 214.628906 54.769531 C 214.628906 57.308594 214.757812 59.265625 215.019531 60.636719 C 215.25 61.886719 215.605469 62.730469 216.078125 63.167969 C 216.53125 63.585938 217.140625 63.796875 217.910156 63.796875 C 218.679688 63.796875 219.285156 63.589844 219.71875 63.175781 C 220.179688 62.738281 220.53125 61.890625 220.765625 60.636719 C 221.023438 59.265625 221.152344 57.308594 221.152344 54.769531 C 221.152344 52.203125 221.023438 50.234375 220.765625 48.863281 C 220.53125 47.609375 220.179688 46.761719 219.71875 46.320312 C 219.285156 45.90625 218.679688 45.703125 217.910156 45.703125 Z M 203.835938 61.890625 C 203.597656 62.429688 203.324219 62.929688 203.023438 63.394531 C 202.964844 63.488281 202.902344 63.574219 202.832031 63.660156 C 203.410156 63.449219 203.960938 63.214844 204.480469 62.964844 L 204.535156 60.339844 Z M 38.855469 36.683594 L 38.898438 36.738281 C 39.921875 34.765625 40.808594 33.429688 41.5625 32.730469 C 42.3125 32.023438 42.949219 31.671875 43.46875 31.671875 C 43.8125 31.671875 44.085938 31.785156 44.289062 32.007812 C 44.5 32.226562 44.605469 32.527344 44.605469 32.910156 C 44.605469 33.292969 44.511719 33.890625 44.320312 34.691406 L 43.089844 39.976562 C 43.046875 40.167969 43.027344 40.328125 43.027344 40.460938 C 43.027344 40.683594 43.09375 40.796875 43.226562 40.796875 C 43.480469 40.796875 43.933594 40.332031 44.585938 39.402344 L 44.835938 39.570312 C 44.816406 39.367188 44.804688 39.152344 44.804688 38.929688 C 44.804688 37.984375 45.042969 36.9375 45.519531 35.78125 C 45.996094 34.625 46.621094 33.648438 47.394531 32.855469 C 48.167969 32.066406 48.992188 31.671875 49.871094 31.671875 C 50.375 31.671875 50.785156 31.816406 51.101562 32.101562 C 51.425781 32.390625 51.585938 32.761719 51.585938 33.222656 C 51.585938 33.699219 51.410156 34.21875 51.0625 34.785156 C 50.707031 35.347656 50.160156 35.863281 49.417969 36.339844 C 48.679688 36.808594 47.765625 37.144531 46.679688 37.355469 C 46.636719 37.929688 46.617188 38.292969 46.617188 38.445312 C 46.617188 39.203125 46.730469 39.808594 46.964844 40.261719 C 47.199219 40.710938 47.523438 40.933594 47.933594 40.933594 C 48.332031 40.933594 48.722656 40.800781 49.101562 40.535156 C 49.480469 40.261719 49.863281 39.925781 50.25 39.527344 L 50.535156 39.777344 C 49.71875 40.617188 49.074219 41.203125 48.597656 41.53125 C 48.117188 41.847656 47.597656 42.011719 47.039062 42.011719 C 46.335938 42.011719 45.785156 41.738281 45.394531 41.183594 C 45.105469 40.78125 44.921875 40.269531 44.847656 39.648438 C 44.335938 40.398438 43.847656 40.972656 43.375 41.382812 C 42.890625 41.800781 42.472656 42.011719 42.132812 42.011719 C 41.890625 42.011719 41.6875 41.921875 41.519531 41.738281 C 41.351562 41.550781 41.269531 41.316406 41.269531 41.035156 C 41.269531 40.863281 41.292969 40.648438 41.351562 40.398438 C 41.414062 40.144531 41.460938 39.945312 41.488281 39.800781 L 42.648438 34.816406 C 42.796875 34.167969 42.867188 33.742188 42.867188 33.539062 C 42.867188 33.390625 42.828125 33.273438 42.742188 33.179688 C 42.664062 33.09375 42.578125 33.046875 42.488281 33.046875 C 42.089844 33.046875 41.59375 33.421875 41.003906 34.167969 C 40.417969 34.917969 39.945312 35.621094 39.570312 36.285156 C 39.152344 37.039062 38.804688 37.800781 38.53125 38.5625 C 38.253906 39.324219 37.976562 40.386719 37.699219 41.75 L 36.042969 41.75 L 38.972656 29.050781 C 38.996094 28.917969 39.054688 28.65625 39.140625 28.261719 C 39.230469 27.871094 39.277344 27.601562 39.277344 27.457031 C 39.277344 27.273438 39.214844 27.125 39.085938 27.003906 C 38.960938 26.886719 38.808594 26.828125 38.632812 26.828125 C 38.578125 26.828125 38.4375 26.847656 38.214844 26.886719 L 37.320312 30.71875 L 36.960938 30.71875 C 37.082031 30.09375 37.140625 29.601562 37.140625 29.226562 C 37.140625 28.101562 36.566406 27.539062 35.425781 27.539062 L 34.003906 27.539062 L 31.371094 38.886719 C 31.160156 39.734375 31.054688 40.28125 31.054688 40.535156 C 31.054688 40.84375 31.160156 41.054688 31.371094 41.171875 C 31.585938 41.292969 31.980469 41.359375 32.550781 41.371094 L 32.453125 41.75 L 27.0625 41.75 L 27.15625 41.371094 L 27.285156 41.371094 C 27.894531 41.371094 28.335938 41.234375 28.609375 40.964844 C 28.882812 40.691406 29.117188 40.160156 29.316406 39.371094 L 32.054688 27.539062 L 31.613281 27.539062 C 30.824219 27.566406 30.183594 27.6875 29.695312 27.894531 C 29.203125 28.105469 28.804688 28.4375 28.503906 28.882812 C 28.210938 29.320312 27.960938 29.9375 27.757812 30.71875 L 27.398438 30.71875 L 28.261719 26.878906 L 38.144531 26.878906 L 38.234375 26.5 L 40.992188 25.925781 L 41.351562 25.925781 Z M 202.019531 38.113281 C 202.109375 38.207031 202.191406 38.304688 202.273438 38.410156 C 202.628906 38.867188 202.957031 39.378906 203.253906 39.941406 L 204.230469 41.492188 L 204.148438 39.011719 C 203.46875 38.667969 202.757812 38.367188 202.019531 38.113281 Z M 86.984375 33.78125 C 88.050781 33.78125 88.941406 34.113281 89.660156 34.769531 C 90.375 35.417969 90.734375 36.273438 90.734375 37.328125 C 90.734375 38.355469 90.375 39.203125 89.660156 39.875 C 88.941406 40.542969 88.050781 40.871094 86.984375 40.871094 C 85.921875 40.871094 85.023438 40.542969 84.289062 39.875 C 83.554688 39.203125 83.191406 38.355469 83.191406 37.328125 C 83.191406 36.273438 83.554688 35.417969 84.289062 34.769531 C 85.023438 34.113281 85.921875 33.78125 86.984375 33.78125 Z M 141.421875 33.78125 C 142.488281 33.78125 143.382812 34.113281 144.097656 34.769531 C 144.8125 35.417969 145.171875 36.273438 145.171875 37.328125 C 145.171875 38.355469 144.8125 39.203125 144.097656 39.875 C 143.382812 40.542969 142.488281 40.871094 141.421875 40.871094 C 140.359375 40.871094 139.464844 40.542969 138.726562 39.875 C 137.996094 39.203125 137.632812 38.355469 137.632812 37.328125 C 137.632812 36.273438 137.996094 35.417969 138.726562 34.769531 C 139.464844 34.113281 140.359375 33.78125 141.421875 33.78125 Z M 49.449219 32.152344 C 48.863281 32.152344 48.332031 32.667969 47.847656 33.695312 C 47.363281 34.71875 47.011719 35.78125 46.796875 36.882812 C 47.488281 36.753906 48.089844 36.46875 48.597656 36.035156 C 49.101562 35.59375 49.476562 35.101562 49.722656 34.554688 C 49.96875 34.011719 50.089844 33.492188 50.089844 33.003906 C 50.089844 32.75 50.039062 32.550781 49.933594 32.394531 C 49.828125 32.234375 49.664062 32.152344 49.449219 32.152344 Z M 49.449219 32.152344 " fill-opacity="1" fill-rule="nonzero"/></g></svg>